{
  "accessors": [
    {
      "bufferView": 2,
      "componentType": 5126,
      "count": 65532,
      "max": [
        4.178955078125,
        -9.999999974752427e-07,
        5.8592681884765625
      ],
      "min": [
        -0.0,
        -11.148419380187988,
        2.043339967727661
      ],
      "type": "VEC3"
    },
    {
      "bufferView": 2,
      "byteOffset": 786384,
      "componentType": 5126,
      "count": 65532,
      "max": [
        0.9999896287918091,
        1.0,
        0.9999929666519165
      ],
      "min": [
        -0.9999983906745911,
        -0.9991640448570251,
        -0.9999898672103882
      ],
      "type": "VEC3"
    },
    {
      "bufferView": 1,
      "componentType": 5126,
      "count": 65532,
      "max": [
        0.9750679731369019,
        0.9008499979972839
      ],
      "min": [
        0.0019529999699443579,
        0.023621000349521637
      ],
      "type": "VEC2"
    },
    {
      "bufferView": 0,
      "componentType": 5125,
      "count": 345105,
      "type": "SCALAR"
    },
    {
      "bufferView": 2,
      "byteOffset": 1572768,
      "componentType": 5126,
      "count": 65532,
      "max": [
        4.143863201141357,
        -0.16934999823570251,
        5.8671979904174805
      ],
      "min": [
        0.04881000146269798,
        -11.086145401000977,
        2.068502902984619
      ],
      "type": "VEC3"
    },
    {
      "bufferView": 2,
      "byteOffset": 2359152,
      "componentType": 5126,
      "count": 65532,
      "max": [
        0.9999997019767761,
        0.9998496174812317,
        0.9999957084655762
      ],
      "min": [
        -0.999998152256012,
        -0.9989188313484192,
        -0.9999969005584717
      ],
      "type": "VEC3"
    },
    {
      "bufferView": 1,
      "byteOffset": 524256,
      "componentType": 5126,
      "count": 65532,
      "max": [
        0.9424030184745789,
        0.8797209858894348
      ],
      "min": [
        0.022352999076247215,
        0.0019529999699443579
      ],
      "type": "VEC2"
    },
    {
      "bufferView": 0,
      "byteOffset": 1380420,
      "componentType": 5125,
      "count": 342060,
      "type": "SCALAR"
    },
    {
      "bufferView": 2,
      "byteOffset": 3145536,
      "componentType": 5126,
      "count": 65532,
      "max": [
        5.178802013397217,
        -7.125457763671875,
        6.089527130126953
      ],
      "min": [
        0.8502650260925293,
        -16.160146713256836,
        -0.0
      ],
      "type": "VEC3"
    },
    {
      "bufferView": 2,
      "byteOffset": 3931920,
      "componentType": 5126,
      "count": 65532,
      "max": [
        0.999999463558197,
        0.9997627139091492,
        0.9999718070030212
      ],
      "min": [
        -0.9999744296073914,
        -0.9999775290489197,
        -0.9999831318855286
      ],
      "type": "VEC3"
    },
    {
      "bufferView": 1,
      "byteOffset": 1048512,
      "componentType": 5126,
      "count": 65532,
      "max": [
        0.9958789944648743,
        0.9951300024986267
      ],
      "min": [
        0.024072999134659767,
        0.002635000040754676
      ],
      "type": "VEC2"
    },
    {
      "bufferView": 0,
      "byteOffset": 2748660,
      "componentType": 5125,
      "count": 344034,
      "type": "SCALAR"
    },
    {
      "bufferView": 2,
      "byteOffset": 4718304,
      "componentType": 5126,
      "count": 65532,
      "max": [
        5.192901134490967,
        -8.369544982910156,
        6.09893798828125
      ],
      "min": [
        0.852711021900177,
        -18.9512882232666,
        -0.0
      ],
      "type": "VEC3"
    },
    {
      "bufferView": 2,
      "byteOffset": 5504688,
      "componentType": 5126,
      "count": 65532,
      "max": [
        0.9999473094940186,
        0.999902069568634,
        0.9999879002571106
      ],
      "min": [
        -0.999947726726532,
        -0.9999524354934692,
        -0.999993622303009
      ],
      "type": "VEC3"
    },
    {
      "bufferView": 1,
      "byteOffset": 1572768,
      "componentType": 5126,
      "count": 65532,
      "max": [
        0.9881349802017212,
        0.9978060126304626
      ],
      "min": [
        0.00761099997907877,
        0.010068000294268131
      ],
      "type": "VEC2"
    },
    {
      "bufferView": 0,
      "byteOffset": 4124796,
      "componentType": 5125,
      "count": 328098,
      "type": "SCALAR"
    },
    {
      "bufferView": 2,
      "byteOffset": 6291072,
      "componentType": 5126,
      "count": 4644,
      "max": [
        4.282189846038818,
        -8.275446891784668,
        6.031649112701416
      ],
      "min": [
        0.9733189940452576,
        -9.404322624206543,
        2.2565500736236572
      ],
      "type": "VEC3"
    },
    {
      "bufferView": 2,
      "byteOffset": 6346800,
      "componentType": 5126,
      "count": 4644,
      "max": [
        0.998206615447998,
        0.9989704489707947,
        0.9998474717140198
      ],
      "min": [
        -0.9977197647094727,
        -0.9999524354934692,
        -0.9984789490699768
      ],
      "type": "VEC3"
    },
    {
      "bufferView": 1,
      "byteOffset": 2097024,
      "componentType": 5126,
      "count": 4644,
      "max": [
        0.9896550178527832,
        0.9980469942092896
      ],
      "min": [
        0.08802100270986557,
        0.005016000010073185
      ],
      "type": "VEC2"
    },
    {
      "bufferView": 0,
      "byteOffset": 5437188,
      "componentType": 5125,
      "count": 15003,
      "type": "SCALAR"
    }
  ],
  "asset": {
    "extras": {
      "author": "LGA-NA (https://sketchfab.com/LGA-NA)",
      "license": "CC-BY-4.0 (http://creativecommons.org/licenses/by/4.0/)",
      "source": "https://sketchfab.com/3d-models/s-march-3d4528fa3d14463abfa1f135efb6fb63",
      "title": "S March"
    },
    "generator": "Sketchfab-12.68.0",
    "version": "2.0"
  },
  "bufferViews": [
    {
      "buffer": 0,
      "byteLength": 5497200,
      "name": "floatBufferViews",
      "target": 34963
    },
    {
      "buffer": 0,
      "byteLength": 2134176,
      "byteOffset": 5497200,
      "byteStride": 8,
      "name": "floatBufferViews",
      "target": 34962
    },
    {
      "buffer": 0,
      "byteLength": 6402528,
      "byteOffset": 7631376,
      "byteStride": 12,
      "name": "floatBufferViews",
      "target": 34962
    }
  ],
  "buffers": [
    {
      "byteLength": 14033904,
      "uri": "scene.bin"
    }
  ],
  "extensionsUsed": [
    "KHR_materials_unlit"
  ],
  "images": [
    {
      "uri": "textures/mat0_baseColor.jpeg"
    }
  ],
  "materials": [
    {
      "doubleSided": true,
      "extensions": {
        "KHR_materials_unlit": {}
      },
      "name": "mat0",
      "pbrMetallicRoughness": {
        "baseColorTexture": {
          "index": 0
        },
        "metallicFactor": 0.0
      }
    }
  ],
  "meshes": [
    {
      "name": "Object_0",
      "primitives": [
        {
          "attributes": {
            "NORMAL": 1,
            "POSITION": 0,
            "TEXCOORD_0": 2
          },
          "indices": 3,
          "material": 0,
          "mode": 4
        }
      ]
    },
    {
      "name": "Object_1",
      "primitives": [
        {
          "attributes": {
            "NORMAL": 5,
            "POSITION": 4,
            "TEXCOORD_0": 6
          },
          "indices": 7,
          "material": 0,
          "mode": 4
        }
      ]
    },
    {
      "name": "Object_2",
      "primitives": [
        {
          "attributes": {
            "NORMAL": 9,
            "POSITION": 8,
            "TEXCOORD_0": 10
          },
          "indices": 11,
          "material": 0,
          "mode": 4
        }
      ]
    },
    {
      "name": "Object_3",
      "primitives": [
        {
          "attributes": {
            "NORMAL": 13,
            "POSITION": 12,
            "TEXCOORD_0": 14
          },
          "indices": 15,
          "material": 0,
          "mode": 4
        }
      ]
    },
    {
      "name": "Object_4",
      "primitives": [
        {
          "attributes": {
            "NORMAL": 17,
            "POSITION": 16,
            "TEXCOORD_0": 18
          },
          "indices": 19,
          "material": 0,
          "mode": 4
        }
      ]
    }
  ],
  "nodes": [
    {
      "children": [
        1
      ],
      "matrix": [
        -1.0,
        2.2204460492503136e-16,
        -1.6081226229577287e-16,
        0.0,
        -2.220446049250313e-16,
        -1.0,
        0.0,
        0.0,
        -1.6081226229577292e-16,
        0.0,
        1.0,
        0.0,
        5.192911148071289,
        -6.426198005676271,
        6.426198005676268,
        1.0
      ],
      "name": "Sketchfab_model"
    },
    {
      "children": [
        2,
        3,
        4,
        5,
        6
      ],
      "name": "SMarch.obj.cleaner.materialmerger.gles"
    },
    {
      "mesh": 0,
      "name": "Object_2"
    },
    {
      "mesh": 1,
      "name": "Object_3"
    },
    {
      "mesh": 2,
      "name": "Object_4"
    },
    {
      "mesh": 3,
      "name": "Object_5"
    },
    {
      "mesh": 4,
      "name": "Object_6"
    }
  ],
  "samplers": [
    {
      "magFilter": 9729,
      "minFilter": 9987,
      "wrapS": 10497,
      "wrapT": 10497
    }
  ],
  "scene": 0,
  "scenes": [
    {
      "name": "Sketchfab_Scene",
      "nodes": [
        0
      ]
    }
  ],
  "textures": [
    {
      "sampler": 0,
      "source": 0
    }
  ]
}
